<svg width="48" height="48" viewBox="0 0 48 48" fill="none" xmlns="http://www.w3.org/2000/svg">
<rect width="48" height="48" rx="15" fill="#2D9CDB" fill-opacity="0.15"/>
<path d="M23.9997 23.9998C24.644 23.9998 25.1663 23.4775 25.1663 22.8332C25.1663 22.1888 24.644 21.6665 23.9997 21.6665C23.3553 21.6665 22.833 22.1888 22.833 22.8332C22.833 23.4775 23.3553 23.9998 23.9997 23.9998Z" fill="#2D9CDB"/>
<path d="M19.3337 23.9998C19.978 23.9998 20.5003 23.4775 20.5003 22.8332C20.5003 22.1888 19.978 21.6665 19.3337 21.6665C18.6893 21.6665 18.167 22.1888 18.167 22.8332C18.167 23.4775 18.6893 23.9998 19.3337 23.9998Z" fill="#2D9CDB"/>
<path d="M28.6667 23.9998C29.311 23.9998 29.8333 23.4775 29.8333 22.8332C29.8333 22.1888 29.311 21.6665 28.6667 21.6665C28.0223 21.6665 27.5 22.1888 27.5 22.8332C27.5 23.4775 28.0223 23.9998 28.6667 23.9998Z" fill="#2D9CDB"/>
<path d="M13.5581 35.515C13.8023 35.6157 14.0639 35.6673 14.3281 35.6667C14.5886 35.668 14.8467 35.617 15.0872 35.5168C15.3277 35.4166 15.5456 35.2692 15.7281 35.0833L18.6448 32.1667H29.8331C31.3802 32.1667 32.8639 31.5521 33.9579 30.4581C35.0518 29.3642 35.6664 27.8804 35.6664 26.3333V19.3333C35.6664 17.7862 35.0518 16.3025 33.9579 15.2085C32.8639 14.1146 31.3802 13.5 29.8331 13.5H18.1664C16.6193 13.5 15.1356 14.1146 14.0416 15.2085C12.9477 16.3025 12.3331 17.7862 12.3331 19.3333V33.6717C12.3294 34.0662 12.4442 34.4528 12.6626 34.7814C12.8809 35.1101 13.1929 35.3656 13.5581 35.515V35.515ZM14.6664 19.3333C14.6664 18.4051 15.0352 17.5148 15.6916 16.8585C16.3479 16.2021 17.2382 15.8333 18.1664 15.8333H29.8331C30.7613 15.8333 31.6516 16.2021 32.308 16.8585C32.9643 17.5148 33.3331 18.4051 33.3331 19.3333V26.3333C33.3331 27.2616 32.9643 28.1518 32.308 28.8082C31.6516 29.4646 30.7613 29.8333 29.8331 29.8333H18.1664C18.0129 29.8324 17.8607 29.8619 17.7185 29.9199C17.5764 29.978 17.4471 30.0635 17.3381 30.1717L14.6664 32.855V19.3333Z" fill="#2D9CDB"/>
</svg>
