<svg width="48" height="48" viewBox="0 0 48 48" fill="none" xmlns="http://www.w3.org/2000/svg">
<rect width="48" height="48" rx="15" fill="#2D9CDB" fill-opacity="0.15"/>
<path d="M15.5 36.7507H32.5C33.6272 36.7507 34.7082 36.3029 35.5052 35.5059C36.3022 34.7088 36.75 33.6278 36.75 32.5007V15.5007C36.75 14.3735 36.3022 13.2925 35.5052 12.4954C34.7082 11.6984 33.6272 11.2507 32.5 11.2507H31.0833C31.0833 10.8749 30.9341 10.5146 30.6684 10.2489C30.4027 9.98324 30.0424 9.83398 29.6667 9.83398C29.2909 9.83398 28.9306 9.98324 28.6649 10.2489C28.3993 10.5146 28.25 10.8749 28.25 11.2507H19.75C19.75 10.8749 19.6007 10.5146 19.3351 10.2489C19.0694 9.98324 18.7091 9.83398 18.3333 9.83398C17.9576 9.83398 17.5973 9.98324 17.3316 10.2489C17.0659 10.5146 16.9167 10.8749 16.9167 11.2507H15.5C14.3728 11.2507 13.2918 11.6984 12.4948 12.4954C11.6978 13.2925 11.25 14.3735 11.25 15.5007V32.5007C11.25 33.6278 11.6978 34.7088 12.4948 35.5059C13.2918 36.3029 14.3728 36.7507 15.5 36.7507ZM14.0833 15.5007C14.0833 15.1249 14.2326 14.7646 14.4983 14.4989C14.7639 14.2332 15.1243 14.084 15.5 14.084H16.9167V15.5007C16.9167 15.8764 17.0659 16.2367 17.3316 16.5024C17.5973 16.7681 17.9576 16.9173 18.3333 16.9173C18.7091 16.9173 19.0694 16.7681 19.3351 16.5024C19.6007 16.2367 19.75 15.8764 19.75 15.5007V14.084H28.25V15.5007C28.25 15.8764 28.3993 16.2367 28.6649 16.5024C28.9306 16.7681 29.2909 16.9173 29.6667 16.9173C30.0424 16.9173 30.4027 16.7681 30.6684 16.5024C30.9341 16.2367 31.0833 15.8764 31.0833 15.5007V14.084H32.5C32.8757 14.084 33.2361 14.2332 33.5017 14.4989C33.7674 14.7646 33.9167 15.1249 33.9167 15.5007V19.7507H14.0833V15.5007ZM14.0833 22.584H33.9167V32.5007C33.9167 32.8764 33.7674 33.2367 33.5017 33.5024C33.2361 33.7681 32.8757 33.9173 32.5 33.9173H15.5C15.1243 33.9173 14.7639 33.7681 14.4983 33.5024C14.2326 33.2367 14.0833 32.8764 14.0833 32.5007V22.584Z" fill="#2D9CDB"/>
</svg>
