<svg width="24" height="24" viewBox="0 0 24 24" fill="none" xmlns="http://www.w3.org/2000/svg">
<path d="M4 24H20C21.0609 24 22.0783 23.6008 22.8284 22.8901C23.5786 22.1794 24 21.2156 24 20.2105V5.05263C24 4.0476 23.5786 3.08373 22.8284 2.37307C22.0783 1.6624 21.0609 1.26316 20 1.26316H18.6667C18.6667 0.928148 18.5262 0.606858 18.2761 0.36997C18.0261 0.133082 17.687 0 17.3333 0C16.9797 0 16.6406 0.133082 16.3905 0.36997C16.1405 0.606858 16 0.928148 16 1.26316H8C8 0.928148 7.85952 0.606858 7.60948 0.36997C7.35943 0.133082 7.02029 0 6.66667 0C6.31305 0 5.97391 0.133082 5.72386 0.36997C5.47381 0.606858 5.33333 0.928148 5.33333 1.26316H4C2.93913 1.26316 1.92172 1.6624 1.17157 2.37307C0.421427 3.08373 0 4.0476 0 5.05263V20.2105C0 21.2156 0.421427 22.1794 1.17157 22.8901C1.92172 23.6008 2.93913 24 4 24ZM2.66667 5.05263C2.66667 4.71762 2.80714 4.39633 3.05719 4.15944C3.30724 3.92256 3.64638 3.78947 4 3.78947H5.33333V5.05263C5.33333 5.38764 5.47381 5.70893 5.72386 5.94582C5.97391 6.18271 6.31305 6.31579 6.66667 6.31579C7.02029 6.31579 7.35943 6.18271 7.60948 5.94582C7.85952 5.70893 8 5.38764 8 5.05263V3.78947H16V5.05263C16 5.38764 16.1405 5.70893 16.3905 5.94582C16.6406 6.18271 16.9797 6.31579 17.3333 6.31579C17.687 6.31579 18.0261 6.18271 18.2761 5.94582C18.5262 5.70893 18.6667 5.38764 18.6667 5.05263V3.78947H20C20.3536 3.78947 20.6928 3.92256 20.9428 4.15944C21.1929 4.39633 21.3333 4.71762 21.3333 5.05263V8.8421H2.66667V5.05263ZM2.66667 11.3684H21.3333V20.2105C21.3333 20.5455 21.1929 20.8668 20.9428 21.1037C20.6928 21.3406 20.3536 21.4737 20 21.4737H4C3.64638 21.4737 3.30724 21.3406 3.05719 21.1037C2.80714 20.8668 2.66667 20.5455 2.66667 20.2105V11.3684Z" fill="#2D9CDB"/>
</svg>
