<svg width="24" height="24" viewBox="0 0 24 24" fill="none" xmlns="http://www.w3.org/2000/svg">
<path d="M11.9887 16.4717C11.7576 16.4697 11.5364 16.378 11.3717 16.216L2.6444 7.48875C2.48542 7.32415 2.39746 7.1037 2.39945 6.87487C2.40144 6.64605 2.49322 6.42716 2.65503 6.26535C2.81684 6.10353 3.03573 6.01175 3.26456 6.00976C3.49338 6.00777 3.71384 6.09574 3.87844 6.25471L11.9887 14.365L20.0989 6.25471C20.1795 6.17136 20.2758 6.10487 20.3822 6.05914C20.4887 6.0134 20.6032 5.98932 20.7191 5.98831C20.835 5.98731 20.9499 6.00939 21.0572 6.05327C21.1644 6.09715 21.2619 6.16195 21.3438 6.2439C21.4257 6.32584 21.4905 6.42328 21.5344 6.53054C21.5783 6.63779 21.6004 6.75271 21.5994 6.86859C21.5984 6.98447 21.5743 7.09899 21.5286 7.20547C21.4828 7.31194 21.4163 7.40824 21.333 7.48875L12.6057 16.216C12.441 16.378 12.2197 16.4697 11.9887 16.4717Z" fill="#B9BBBD"/>
</svg>
