<svg width="48" height="48" viewBox="0 0 48 48" fill="none" xmlns="http://www.w3.org/2000/svg">
<rect width="48" height="48" rx="15" fill="#FF5B5B" fill-opacity="0.15"/>
<path d="M24 19.625C23.1347 19.625 22.2888 19.8816 21.5694 20.3623C20.8499 20.8431 20.2892 21.5263 19.958 22.3258C19.6269 23.1252 19.5403 24.0048 19.7091 24.8535C19.8779 25.7022 20.2946 26.4817 20.9064 27.0936C21.5183 27.7054 22.2978 28.1221 23.1465 28.2909C23.9951 28.4597 24.8748 28.3731 25.6742 28.042C26.4737 27.7108 27.1569 27.1501 27.6377 26.4306C28.1184 25.7111 28.375 24.8653 28.375 24C28.3736 22.8401 27.9122 21.7281 27.0921 20.9079C26.2719 20.0877 25.1599 19.6264 24 19.625V19.625ZM24 26.625C23.4808 26.625 22.9733 26.471 22.5416 26.1826C22.1099 25.8942 21.7735 25.4842 21.5748 25.0045C21.3761 24.5249 21.3242 23.9971 21.4254 23.4879C21.5267 22.9787 21.7767 22.511 22.1438 22.1438C22.511 21.7767 22.9787 21.5267 23.4879 21.4254C23.9971 21.3241 24.5249 21.3761 25.0045 21.5748C25.4842 21.7735 25.8942 22.1099 26.1826 22.5416C26.471 22.9733 26.625 23.4808 26.625 24C26.6242 24.696 26.3474 25.3632 25.8553 25.8553C25.3632 26.3474 24.696 26.6242 24 26.625V26.625Z" fill="#FF5B5B"/>
<path d="M15.4893 18.5599C15.0591 18.3983 14.5828 18.4104 14.1613 18.5936C13.7397 18.7768 13.406 19.1168 13.2307 19.5417C13.0554 19.9665 13.0522 20.443 13.2219 20.8701C13.3915 21.2973 13.7207 21.6417 14.1397 21.8305C14.566 22.0108 14.9297 22.3128 15.1855 22.6986C15.4412 23.0844 15.5776 23.537 15.5776 23.9999C15.5776 24.4627 15.4412 24.9153 15.1855 25.3012C14.9297 25.687 14.566 25.9889 14.1397 26.1692C13.7206 26.358 13.3913 26.7025 13.2216 27.1298C13.052 27.557 13.0552 28.0335 13.2306 28.4585C13.406 28.8834 13.7399 29.2234 14.1615 29.4065C14.5832 29.5897 15.0595 29.6016 15.4898 29.4398C15.9192 29.2649 16.3906 29.2206 16.8451 29.3125C17.2995 29.4043 17.7167 29.6283 18.0445 29.9562C18.3722 30.2841 18.5959 30.7014 18.6875 31.1559C18.7792 31.6103 18.7347 32.0817 18.5596 32.511C18.3927 32.9424 18.4031 33.4223 18.5884 33.8461C18.7738 34.2699 19.1191 34.6033 19.5491 34.7737C19.7645 34.8628 19.9953 34.9087 20.2284 34.9087C20.5689 34.9111 20.9026 34.8129 21.1875 34.6265C21.4724 34.44 21.696 34.1736 21.8302 33.8606C22.0105 33.4343 22.3124 33.0706 22.6982 32.8149C23.084 32.5592 23.5366 32.4228 23.9995 32.4228C24.4624 32.4228 24.915 32.5592 25.3008 32.8149C25.6866 33.0706 25.9885 33.4343 26.1689 33.8606C26.3577 34.2798 26.7022 34.609 27.1294 34.7787C27.5567 34.9484 28.0332 34.9451 28.4581 34.7697C28.883 34.5943 29.223 34.2605 29.4062 33.8388C29.5893 33.4172 29.6013 32.9408 29.4394 32.5105C29.2646 32.0811 29.2203 31.6097 29.3121 31.1553C29.404 30.7009 29.6279 30.2836 29.9558 29.9559C30.2837 29.6281 30.701 29.4044 31.1555 29.3128C31.61 29.2212 32.0814 29.2657 32.5107 29.4407C32.9394 29.6072 33.4164 29.5983 33.8386 29.4159C34.2608 29.2335 34.5942 28.8924 34.767 28.4662L33.9646 28.1176L33.1683 27.8194C32.4205 27.5138 31.599 27.4362 30.8072 27.5963C30.0154 27.7564 29.2886 28.1471 28.7182 28.7191C28.1482 29.2937 27.7566 30.0209 27.5906 30.813C27.4245 31.6051 27.4912 32.4283 27.7824 33.1834C27.4703 32.4382 26.9446 31.802 26.2715 31.3552C25.5984 30.9083 24.808 30.6707 24.0001 30.6724C23.1904 30.6749 22.3988 30.912 21.721 31.3551C21.0433 31.7981 20.5085 32.4281 20.1813 33.1688C20.4866 32.4209 20.5641 31.5995 20.404 30.8077C20.244 30.0159 19.8534 29.2891 19.2816 28.7186C18.7069 28.1487 17.9798 27.7572 17.1877 27.5911C16.3956 27.4251 15.5724 27.4917 14.8173 27.7829C15.5625 27.4707 16.1986 26.9448 16.6453 26.2716C17.0921 25.5984 17.3296 24.808 17.3278 24.0001C17.3253 23.1904 17.0881 22.3988 16.6451 21.721C16.202 21.0433 15.5721 20.5085 14.8314 20.1813C15.5792 20.4868 16.4007 20.5644 17.1925 20.4043C17.9843 20.2442 18.7111 19.8536 19.2816 19.2816C19.8515 18.707 20.2431 17.9798 20.4092 17.1877C20.5752 16.3956 20.5086 15.5724 20.2173 14.8173C20.5295 15.5625 21.0554 16.1986 21.7285 16.6453C22.4017 17.0921 23.1921 17.3296 24.0001 17.3278C24.8098 17.3253 25.6014 17.0881 26.2791 16.6451C26.9569 16.202 27.4917 15.5721 27.8188 14.8314C27.5135 15.5793 27.436 16.4007 27.5961 17.1925C27.7562 17.9842 28.1467 18.711 28.7186 19.2816C29.2934 19.8512 30.0205 20.2426 30.8126 20.4087C31.6046 20.5747 32.4277 20.5082 33.1829 20.2173C32.4413 20.5288 31.8078 21.0518 31.3614 21.7209C30.9149 22.39 30.6753 23.1758 30.6724 23.9802C30.6695 24.7845 30.9034 25.572 31.345 26.2443C31.7865 26.9167 32.4162 27.4442 33.1556 27.7611C33.158 27.7683 33.158 27.7761 33.1556 27.7833L33.9643 28.117L34.7684 28.4618L34.7731 28.4507C34.9517 28.0269 34.9561 27.5499 34.7852 27.1229C34.6144 26.696 34.2821 26.3536 33.8605 26.1701C33.4342 25.9898 33.0704 25.6878 32.8147 25.302C32.559 24.9162 32.4226 24.4636 32.4226 24.0007C32.4226 23.5379 32.559 23.0853 32.8147 22.6994C33.0704 22.3136 33.4342 22.0117 33.8605 21.8314C34.2796 21.6426 34.6088 21.2981 34.7785 20.8708C34.9482 20.4436 34.945 19.9671 34.7696 19.5421C34.5941 19.1172 34.2603 18.7772 33.8386 18.5941C33.417 18.4109 32.9406 18.399 32.5103 18.5608C32.081 18.7357 31.6095 18.78 31.1551 18.6881C30.7007 18.5963 30.2835 18.3723 29.9557 18.0444C29.628 17.7165 29.4043 17.2992 29.3126 16.8447C29.221 16.3903 29.2655 15.9189 29.4406 15.4896C29.6023 15.0593 29.5904 14.583 29.4072 14.1614C29.224 13.7398 28.884 13.406 28.4591 13.2306C28.0342 13.0552 27.5578 13.052 27.1305 13.2217C26.7033 13.3914 26.3589 13.7206 26.1701 14.1397C25.9898 14.566 25.6879 14.9297 25.302 15.1855C24.9162 15.4412 24.4636 15.5776 24.0007 15.5776C23.5379 15.5776 23.0853 15.4412 22.6994 15.1855C22.3136 14.9297 22.0117 14.566 21.8314 14.1397C21.6426 13.7206 21.2981 13.3913 20.8708 13.2216C20.4436 13.052 19.9671 13.0552 19.5422 13.2306C19.1172 13.406 18.7772 13.7399 18.5941 14.1615C18.4109 14.5832 18.399 15.0595 18.5608 15.4898C18.7357 15.9192 18.78 16.3906 18.6881 16.8451C18.5963 17.2995 18.3724 17.7167 18.0444 18.0445C17.7165 18.3722 17.2992 18.5959 16.8447 18.6875C16.3903 18.7792 15.9189 18.7347 15.4896 18.5596L15.4893 18.5599Z" fill="#FF5B5B"/>
</svg>
