<svg width="48" height="48" viewBox="0 0 48 48" fill="none" xmlns="http://www.w3.org/2000/svg">
<rect width="48" height="48" rx="15" fill="#5E6C93" fill-opacity="0.15"/>
<path d="M33.625 16.1249H32.75V12.6249C32.75 12.4726 32.7102 12.3228 32.6345 12.1906C32.5589 12.0583 32.45 11.9481 32.3186 11.8708C32.1873 11.7935 32.0381 11.7519 31.8857 11.7501C31.7333 11.7482 31.5831 11.7862 31.4499 11.8602L24 15.999L16.5501 11.8602C16.4169 11.7862 16.2667 11.7482 16.1143 11.7501C15.9619 11.7519 15.8127 11.7935 15.6814 11.8708C15.55 11.9481 15.4411 12.0583 15.3655 12.1906C15.2898 12.3228 15.25 12.4726 15.25 12.6249V16.1249H14.375C13.679 16.1257 13.0118 16.4025 12.5197 16.8946C12.0276 17.3867 11.7508 18.054 11.75 18.7499V21.3749C11.7508 22.0709 12.0276 22.7381 12.5197 23.2302C13.0118 23.7224 13.679 23.9992 14.375 23.9999H15.25V33.6249C15.2508 34.3209 15.5276 34.9881 16.0197 35.4802C16.5118 35.9724 17.179 36.2492 17.875 36.2499H30.125C30.821 36.2492 31.4882 35.9724 31.9803 35.4802C32.4724 34.9881 32.7492 34.3209 32.75 33.6249V23.9999H33.625C34.321 23.9992 34.9882 23.7224 35.4803 23.2302C35.9724 22.7381 36.2492 22.0709 36.25 21.3749V18.7499C36.2492 18.054 35.9724 17.3867 35.4803 16.8946C34.9882 16.4025 34.321 16.1257 33.625 16.1249ZM31 16.1249H27.3769L31 14.1124V16.1249ZM17 14.1124L20.6231 16.1249H17V14.1124ZM17 33.6249V23.9999H23.125V34.4999H17.875C17.643 34.4996 17.4206 34.4073 17.2566 34.2433C17.0926 34.0793 17.0003 33.8569 17 33.6249ZM31 33.6249C30.9997 33.8569 30.9074 34.0793 30.7434 34.2433C30.5794 34.4073 30.357 34.4996 30.125 34.4999H24.875V23.9999H31V33.6249ZM34.5 21.3749C34.4997 21.6069 34.4074 21.8293 34.2434 21.9933C34.0794 22.1574 33.857 22.2496 33.625 22.2499H14.375C14.143 22.2496 13.9206 22.1574 13.7566 21.9933C13.5926 21.8293 13.5003 21.6069 13.5 21.3749V18.7499C13.5003 18.518 13.5926 18.2956 13.7566 18.1316C13.9206 17.9675 14.143 17.8752 14.375 17.8749H33.625C33.857 17.8752 34.0794 17.9675 34.2434 18.1316C34.4074 18.2956 34.4997 18.518 34.5 18.7499V21.3749Z" fill="#5E6C93"/>
</svg>
