<svg width="28" height="28" viewBox="0 0 28 28" fill="none" xmlns="http://www.w3.org/2000/svg">
<path d="M2 7.33333H26M3.5 7.33333L5 23.3333C5 24.0406 5.31607 24.7189 5.87868 25.219C6.44129 25.7191 7.20435 26 8 26H20C20.7957 26 21.5587 25.7191 22.1213 25.219C22.6839 24.7189 23 24.0406 23 23.3333L24.5 7.33333M9.5 7.33333V3.33333C9.5 2.97971 9.65804 2.64057 9.93934 2.39052C10.2206 2.14048 10.6022 2 11 2H17C17.3978 2 17.7794 2.14048 18.0607 2.39052C18.342 2.64057 18.5 2.97971 18.5 3.33333V7.33333M11 14L17 19.3333M17 14L11 19.3333" stroke="#FF6666" stroke-width="3" stroke-linecap="round" stroke-linejoin="round"/>
</svg>
