<svg width="42" height="42" viewBox="0 0 42 42" fill="none" xmlns="http://www.w3.org/2000/svg">
<path d="M16.6687 21L29.5312 33.8625C29.9687 34.3 30.1805 34.818 30.1665 35.4165C30.1525 36.015 29.9262 36.5324 29.4875 36.9687C29.0488 37.4051 28.5308 37.6238 27.9335 37.625C27.3362 37.6262 26.8187 37.4074 26.3812 36.9687L12.95 23.4937C12.6 23.1437 12.3375 22.75 12.1625 22.3125C11.9875 21.875 11.9 21.4375 11.9 21C11.9 20.5625 11.9875 20.125 12.1625 19.6875C12.3375 19.25 12.6 18.8562 12.95 18.5062L26.425 5.03124C26.8625 4.59374 27.3729 4.38199 27.9562 4.39599C28.5396 4.40999 29.05 4.63633 29.4875 5.07499C29.925 5.51366 30.1437 6.03166 30.1437 6.62899C30.1437 7.22633 29.925 7.74374 29.4875 8.18124L16.6687 21Z" fill="black"/>
</svg>
